# xmcd
#
# Track frame offsets:
#	150
#	10640
#	68396
#	81011
#	93756
#	102926
#	121152
#	138493
#	151357
#
# Disc length: 2198 seconds
#
# Revision: 1
# Processed by: cddbd v1.5.2PL0 Copyright (c) Steve Scherf et al.
# Submitted via: audiograbber 1.83.01
#
DISCID=5c089409
DTITLE=Gunslingers - No More Invention
DYEAR=2008
DGENRE=
TTITLE0=Into The Garage
TTITLE1=Lighter Slinger Festival
TTITLE2=King Yaya's Forty Guns
TTITLE3=San Pedro Hallucination
TTITLE4=The Beheaded Motorbiker's Head
TTITLE5=Black Dwarf Man
TTITLE6=Gigolo Albinos
TTITLE7=Auschwitz Boogie
TTITLE8=The Minister's Black Veil
EXTD=
EXTT0=
EXTT1=
EXTT2=
EXTT3=
EXTT4=
EXTT5=
EXTT6=
EXTT7=
EXTT8=
PLAYORDER=
